<svg width="220" height="209" viewBox="0 0 220 209" fill="none" xmlns="http://www.w3.org/2000/svg">
<path d="M4.42844 71.4516C20.2831 67.924 47.2432 62.8634 58.077 80.8354C63.3426 89.5703 68.5795 95.6435 65.7249 106.196C59.9206 127.651 28.1438 111.143 32.6539 91.4986C41.6887 52.145 84.9015 38.9083 113.905 64.4589C127.32 76.2767 134.361 94.3037 131.519 112.136C130.184 120.514 124.333 131.636 113.654 127.019C89.891 116.745 97.1855 82.2331 119.241 73.8962C154.749 60.4745 184.895 99.1527 184.222 131.454C184.218 131.644 182.733 155.572 179.593 152.892C173.392 147.598 168.537 122.315 172.329 129.533C176.086 136.684 173.873 144.247 174.665 151.475C175.033 154.835 202.711 145.965 208.002 144.778" stroke="#00A1FC" stroke-width="3" stroke-linecap="round"/>
</svg>
