<svg width="160" height="172" viewBox="0 0 160 172" fill="none" xmlns="http://www.w3.org/2000/svg">
<path d="M1.80158 46.3698C14.1155 42.9183 49.1316 32.6666 58.2574 49.9409C62.0546 57.1288 63.1961 69.1466 59.3314 76.7299C51.0319 93.0149 22.9935 89.6257 35.1951 68.8044C42.038 57.1274 59.1061 55.9937 71.2034 55.3574C89.0355 54.4194 101.745 62.9702 114.589 74.1867C121.112 79.883 145.213 112.974 142.562 112.907" stroke="#FF8A00" stroke-width="3" stroke-linecap="round"/>
<path d="M153.021 123.908C150.296 123.744 129.474 121.815 131.984 122.383C135.269 123.127 138.734 123.554 141.906 124.701C145.659 126.058 149.695 126.448 153.27 128.209C156.407 129.754 152.622 111.751 151.254 108.832" stroke="#FF8A00" stroke-width="3" stroke-linecap="round"/>
</svg>
