<svg width="161" height="160" viewBox="0 0 161 160" fill="none" xmlns="http://www.w3.org/2000/svg">
<path d="M142.817 83.3483C142.817 82.7689 142.993 82.2886 143.343 81.9074C143.709 81.5415 144.159 81.3585 144.693 81.3585C145.226 81.3585 145.668 81.5415 146.019 81.9074C146.385 82.2886 146.568 82.7689 146.568 83.3483C146.568 83.9124 146.385 84.3775 146.019 84.7434C145.668 85.1093 145.226 85.2923 144.693 85.2923C144.159 85.2923 143.709 85.1093 143.343 84.7434C142.993 84.3775 142.817 83.9124 142.817 83.3483Z" fill="#6672D7"/>
<path d="M142.792 113.7L130.676 109.992L131.631 106.912L133.162 107.381C132.759 106.827 132.503 106.183 132.396 105.448C132.298 104.733 132.364 104.004 132.595 103.261C132.888 102.314 133.344 101.537 133.964 100.929C134.598 100.326 135.366 99.9313 136.27 99.7454C137.184 99.5785 138.18 99.6601 139.259 99.9902L146.367 102.165L145.419 105.223L138.748 103.182C137.786 102.888 136.968 102.901 136.294 103.221C135.635 103.545 135.177 104.123 134.92 104.953C134.658 105.797 134.708 106.538 135.069 107.175C135.445 107.816 136.114 108.284 137.076 108.578L143.747 110.619L142.792 113.7Z" fill="#6672D7"/>
<path d="M136.881 121.858C136.139 123.172 135.12 124 133.823 124.342C132.54 124.691 131.153 124.45 129.662 123.618L123.17 119.998L124.745 117.21L130.857 120.619C131.736 121.109 132.532 121.265 133.246 121.087C133.972 120.916 134.55 120.452 134.977 119.696C135.412 118.926 135.517 118.181 135.293 117.463C135.074 116.765 134.525 116.17 133.647 115.68L127.535 112.271L129.109 109.483L140.175 115.655L138.6 118.443L137.222 117.674C137.491 118.313 137.598 118.993 137.542 119.712C137.492 120.452 137.271 121.167 136.881 121.858Z" fill="#6672D7"/>
<path d="M131.422 129.63C131.795 129.207 132.24 128.968 132.757 128.912C133.275 128.878 133.735 129.037 134.137 129.387C134.539 129.738 134.752 130.166 134.774 130.67C134.798 131.197 134.623 131.671 134.249 132.094C133.876 132.517 133.43 132.746 132.912 132.78C132.396 132.835 131.936 132.687 131.534 132.337C131.132 131.986 130.919 131.548 130.895 131.022C130.873 130.517 131.048 130.053 131.422 129.63ZM129.239 129.821L119.687 121.497L121.806 119.096L131.358 127.421L129.239 129.821Z" fill="#6672D7"/>
<path d="M122.605 127.165C123.47 128.089 124.045 129.083 124.331 130.148C124.616 131.234 124.616 132.282 124.33 133.293C124.045 134.305 123.504 135.178 122.709 135.912C122.049 136.523 121.346 136.933 120.603 137.142C119.858 137.373 119.147 137.439 118.469 137.339L119.594 138.541L117.226 140.73L104.443 127.07L106.811 124.881L112.125 130.559C112.063 129.868 112.17 129.146 112.447 128.393C112.723 127.639 113.192 126.957 113.852 126.347C114.636 125.623 115.546 125.156 116.582 124.946C117.617 124.758 118.663 124.85 119.721 125.221C120.779 125.593 121.74 126.241 122.605 127.165ZM115.266 133.916C115.797 134.483 116.373 134.865 116.993 135.059C117.614 135.254 118.214 135.281 118.792 135.141C119.36 135.011 119.856 134.749 120.282 134.356C120.696 133.973 120.995 133.5 121.178 132.937C121.349 132.384 121.36 131.793 121.21 131.163C121.07 130.545 120.734 129.952 120.203 129.385C119.672 128.817 119.091 128.43 118.459 128.224C117.839 128.03 117.245 127.997 116.677 128.127C116.099 128.268 115.602 128.529 115.188 128.912C114.762 129.305 114.464 129.778 114.292 130.331C114.109 130.895 114.093 131.491 114.243 132.12C114.393 132.749 114.734 133.348 115.266 133.916Z" fill="#6672D7"/>
<path d="M103.266 147.277L96.8315 136.362L99.6185 134.74L100.432 136.119C100.509 135.439 100.756 134.793 101.173 134.179C101.585 133.587 102.127 133.095 102.799 132.704C103.655 132.205 104.517 131.942 105.385 131.913C106.261 131.897 107.095 132.126 107.888 132.6C108.675 133.094 109.355 133.827 109.928 134.799L113.703 141.203L110.935 142.813L107.393 136.804C106.882 135.937 106.269 135.394 105.556 135.174C104.85 134.968 104.121 135.083 103.37 135.52C102.606 135.965 102.142 136.544 101.978 137.257C101.822 137.983 102 138.779 102.511 139.646L106.053 145.655L103.266 147.277Z" fill="#6672D7"/>
<path d="M87.1859 145.81C87.0422 145.376 86.9419 144.975 86.8849 144.609L95.6898 141.733C95.33 140.888 94.8006 140.307 94.1015 139.99C93.4024 139.673 92.6616 139.642 91.8789 139.898C90.7484 140.267 90.1044 141.015 89.947 142.141L86.6642 143.213C86.6289 141.942 86.9796 140.768 87.7161 139.694C88.4575 138.634 89.5456 137.869 90.9804 137.401C92.1399 137.022 93.2673 136.934 94.3625 137.138C95.448 137.361 96.4072 137.858 97.2403 138.628C98.0588 139.403 98.6716 140.406 99.0786 141.637C99.4904 142.881 99.5984 144.057 99.4023 145.164C99.2063 146.27 98.7356 147.226 97.9901 148.031C97.2446 148.836 96.2776 149.432 95.0891 149.821C93.9442 150.195 92.8409 150.282 91.7795 150.084C90.7036 149.89 89.7684 149.417 88.974 148.666C88.1698 147.934 87.5738 146.982 87.1859 145.81ZM90.6255 145.649C90.8986 146.426 91.3872 146.956 92.0912 147.239C92.7999 147.537 93.5529 147.556 94.3501 147.295C95.1037 147.049 95.6648 146.609 96.0334 145.975C96.3922 145.361 96.4955 144.63 96.3433 143.781L90.6255 145.649Z" fill="#6672D7"/>
<path d="M79.9652 144.545C79.9856 145.856 79.7366 147.003 79.2182 147.987C78.7 148.986 77.9724 149.76 77.0355 150.308C76.0988 150.871 75.0207 151.162 73.801 151.181C72.2308 151.205 70.9288 150.829 69.895 150.052C68.8462 149.29 68.1355 148.203 67.7628 146.791L71.2159 146.738C71.4074 147.284 71.7265 147.706 72.1734 148.004C72.6052 148.317 73.1413 148.469 73.7816 148.46C74.6963 148.446 75.4153 148.099 75.9385 147.42C76.4619 146.756 76.7141 145.815 76.6951 144.595C76.6764 143.391 76.395 142.457 75.851 141.795C75.3073 141.147 74.578 140.83 73.6633 140.845C72.3674 140.864 71.5303 141.457 71.1519 142.621L67.6989 142.674C68.0282 141.297 68.7049 140.196 69.729 139.372C70.7532 138.548 72.0428 138.125 73.5978 138.101C74.8174 138.082 75.904 138.332 76.8575 138.851C77.8112 139.386 78.5625 140.137 79.1112 141.104C79.6602 142.087 79.9449 143.234 79.9652 144.545Z" fill="#6672D7"/>
<path d="M66.7804 143.316C66.5438 144.575 66.0866 145.645 65.4088 146.527C64.716 147.407 63.8931 148.029 62.94 148.395C61.9719 148.758 60.9557 148.841 59.8913 148.643C58.9619 148.471 58.1876 148.133 57.5684 147.631C56.9342 147.125 56.4608 146.549 56.148 145.902L55.8143 147.677L52.6436 147.089L54.9843 134.637L58.1549 135.225L57.8127 137.046C58.3273 136.537 58.981 136.154 59.7738 135.898C60.5488 135.654 61.401 135.618 62.3305 135.791C63.3799 135.986 64.2886 136.433 65.0567 137.134C65.8098 137.832 66.3496 138.716 66.6763 139.784C66.9851 140.865 67.0198 142.042 66.7804 143.316ZM56.9846 141.451C56.8409 142.216 56.8683 142.895 57.0668 143.49C57.2624 144.1 57.5883 144.595 58.0444 144.974C58.4978 145.369 59.0168 145.62 59.6015 145.729C60.1861 145.837 60.7526 145.795 61.3008 145.602C61.849 145.409 62.3326 145.065 62.7517 144.569C63.1529 144.085 63.4239 143.468 63.5648 142.719C63.7056 141.97 63.6796 141.283 63.4868 140.658C63.2762 140.045 62.9517 139.543 62.5134 139.151C62.06 138.757 61.5485 138.507 60.9788 138.401C60.3942 138.293 59.8202 138.333 59.257 138.523C58.691 138.729 58.2074 139.073 57.8061 139.557C57.4021 140.056 57.1282 140.687 56.9846 141.451Z" fill="#6672D7"/>
<path d="M47.4806 140.52L49.9234 134.899C50.0936 134.507 50.1271 134.182 50.0239 133.922C49.9007 133.67 49.6148 133.448 49.1665 133.255L47.8003 132.669L48.8759 130.194L50.7254 130.987C53.2055 132.052 53.923 133.786 52.8778 136.191L50.4441 141.792L51.8313 142.387L50.7831 144.799L49.3959 144.204L48.1471 147.078L45.1836 145.806L46.4324 142.933L43.8262 141.814L44.8744 139.402L47.4806 140.52Z" fill="#6672D7"/>
<path d="M44.6169 125.539C45.5052 126.073 46.2069 126.709 46.7218 127.446C47.2288 128.196 47.5247 128.971 47.6094 129.769C47.681 130.559 47.5341 131.299 47.1685 131.986L44.4056 130.323C44.6073 129.875 44.6151 129.408 44.4291 128.922C44.23 128.429 43.8626 128.021 43.327 127.699C42.8045 127.384 42.336 127.245 41.9217 127.28C41.4942 127.307 41.1813 127.484 40.9829 127.809C40.7686 128.161 40.7928 128.531 41.0554 128.921C41.297 129.315 41.7462 129.852 42.403 130.533C43.0939 131.215 43.6371 131.818 44.0327 132.341C44.4152 132.856 44.6649 133.442 44.7819 134.1C44.8857 134.75 44.7155 135.439 44.271 136.168C43.906 136.767 43.4028 137.211 42.7616 137.502C42.1073 137.784 41.3728 137.876 40.5581 137.777C39.7303 137.67 38.8788 137.354 38.0036 136.827C36.7103 136.048 35.8767 135.102 35.5028 133.987C35.1209 132.885 35.2241 131.764 35.8124 130.623L38.4381 132.203C38.2154 132.657 38.192 133.105 38.3677 133.549C38.5225 133.998 38.8677 134.384 39.4033 134.706C39.8998 135.005 40.3407 135.146 40.7261 135.129C41.0985 135.104 41.3839 134.929 41.5823 134.603C41.8045 134.239 41.7922 133.849 41.5455 133.433C41.2908 133.031 40.8377 132.5 40.186 131.841C39.5212 131.174 38.9976 130.583 38.6151 130.068C38.2326 129.553 37.9934 128.964 37.8974 128.301C37.7805 127.643 37.9337 126.953 38.3571 126.229C38.7381 125.604 39.2557 125.15 39.91 124.868C40.5512 124.578 41.2857 124.486 42.1135 124.592C42.9202 124.704 43.7547 125.02 44.6169 125.539Z" fill="#6672D7"/>
<path d="M27.2017 107.988L29.398 110.318L26.3517 123.057L34.3709 115.594L36.5672 117.924L24.8648 128.815L22.6685 126.485L25.7316 113.731L17.6956 121.21L15.4993 118.88L27.2017 107.988Z" fill="#6672D7"/>
<path d="M10.1298 106.35L12.3775 105.074L15.6936 110.845L19.2542 108.824L16.713 104.402L18.921 103.15L21.4622 107.572L27.3302 104.242L28.9256 107.018L15.0413 114.896L10.1298 106.35Z" fill="#6672D7"/>
<path d="M6.23873 92.7862L8.67674 91.9288L10.1041 95.9361L22.7257 91.4971L23.8001 94.5134L11.1785 98.9524L12.6059 102.96L10.1679 103.817L6.23873 92.7862Z" fill="#6672D7"/>
<path d="M16.8606 73.8454C16.8314 74.4241 16.632 74.895 16.2625 75.2582C15.8786 75.6055 15.4201 75.7658 14.8871 75.7392C14.3541 75.7126 13.9218 75.5079 13.59 75.1249C13.2437 74.726 13.0852 74.2372 13.1145 73.6585C13.1429 73.0951 13.3491 72.6398 13.7331 72.2926C14.1018 71.9446 14.5527 71.7839 15.0856 71.8105C15.6186 71.8371 16.0586 72.0422 16.4056 72.4259C16.7374 72.8088 16.8891 73.282 16.8606 73.8454Z" fill="#6672D7"/>
<path d="M18.4615 43.5667L30.3663 47.9043L29.2499 50.9296L27.7456 50.3816C28.1188 50.9557 28.3397 51.6123 28.4083 52.3513C28.4679 53.0707 28.363 53.7952 28.0938 54.5247C27.7507 55.4545 27.2538 56.2066 26.6031 56.7808C25.938 57.3499 25.1493 57.7035 24.237 57.8417C23.3156 57.9603 22.3248 57.8265 21.2647 57.4403L14.2809 54.8957L15.3894 51.8918L21.9434 54.2798C22.8889 54.6243 23.7067 54.6545 24.3966 54.3704C25.0722 54.081 25.5604 53.5287 25.8613 52.7133C26.1675 51.8837 26.1569 51.1415 25.8297 50.4867C25.4882 49.8268 24.8447 49.3246 23.8992 48.9801L17.3451 46.592L18.4615 43.5667Z" fill="#6672D7"/>
<path d="M24.9498 35.4814C25.7638 34.2102 26.8275 33.4396 28.1409 33.1697C29.4415 32.8916 30.8135 33.2088 32.2569 34.1214L38.5395 38.0935L36.8129 40.79L30.8976 37.0501C30.047 36.5123 29.2605 36.3127 28.5381 36.4513C27.8028 36.5817 27.2009 37.0128 26.7322 37.7447C26.2553 38.4895 26.1091 39.2268 26.2935 39.9567C26.4732 40.6656 26.9884 41.2889 27.839 41.8267L33.7543 45.5666L32.0277 48.263L21.3182 41.4921L23.0448 38.7957L24.3787 39.639C24.145 38.9861 24.076 38.3021 24.1718 37.5871C24.2629 36.851 24.5223 36.1491 24.9498 35.4814Z" fill="#6672D7"/>
<path d="M30.6381 28.2028C30.2423 28.6047 29.785 28.8193 29.2661 28.8465C28.747 28.8521 28.2961 28.6689 27.9135 28.2969C27.5308 27.9249 27.3422 27.4863 27.3475 26.9811C27.3526 26.4545 27.553 25.9901 27.9488 25.5881C28.3447 25.1862 28.8021 24.9823 29.3212 24.9767C29.8401 24.9495 30.2909 25.122 30.6735 25.494C31.0561 25.866 31.2449 26.3153 31.2398 26.842C31.2345 27.3472 31.0339 27.8008 30.6381 28.2028ZM32.8276 28.1305L41.9122 36.9628L39.6656 39.2443L30.5811 30.412L32.8276 28.1305Z" fill="#6672D7"/>
<path d="M39.4869 30.9597C38.6739 29.9899 38.1536 28.9658 37.9261 27.8874C37.7005 26.7877 37.758 25.7407 38.0983 24.7464C38.4387 23.7522 39.0259 22.91 39.8598 22.2197C40.5528 21.6462 41.2763 21.275 42.0301 21.1063C42.7859 20.9161 43.4997 20.8895 44.1714 21.0262L43.1135 19.7643L45.5978 17.7081L57.6161 32.0454L55.1319 34.1015L50.1365 28.1423C50.1602 28.8351 50.0136 29.5502 49.6966 30.2876C49.3797 31.0249 48.8747 31.6804 48.1817 32.254C47.3595 32.9345 46.4255 33.3512 45.3799 33.5041C44.3362 33.6357 43.2964 33.4869 42.2604 33.058C41.2243 32.629 40.2998 31.9296 39.4869 30.9597ZM47.1833 24.6193C46.6838 24.0234 46.1295 23.6113 45.5204 23.3831C44.9113 23.155 44.314 23.0951 43.7286 23.2036C43.1549 23.3025 42.6448 23.5366 42.1985 23.906C41.7639 24.2657 41.44 24.7218 41.2267 25.2744C41.0252 25.8172 40.9823 26.4069 41.0981 27.0433C41.204 27.6682 41.5068 28.2785 42.0063 28.8744C42.5059 29.4704 43.0651 29.8883 43.684 30.1281C44.293 30.3563 44.8844 30.421 45.4581 30.3222C46.0436 30.2137 46.5536 29.9796 46.9882 29.6199C47.4346 29.2504 47.7585 28.7943 47.96 28.2515C48.1732 27.6989 48.222 27.1044 48.1062 26.4679C47.9905 25.8314 47.6829 25.2152 47.1833 24.6193Z" fill="#6672D7"/>
<path d="M59.1984 11.1712L65.0168 22.4267L62.1445 23.8927L61.4093 22.4705C61.2947 23.1453 61.0121 23.7774 60.5616 24.3668C60.1177 24.9357 59.5494 25.397 58.8568 25.7505C57.9741 26.201 57.0987 26.4167 56.2306 26.3976C55.3556 26.3649 54.5356 26.0902 53.7707 25.5734C53.0123 25.036 52.3741 24.2662 51.856 23.2639L48.4427 16.661L51.2946 15.2054L54.4978 21.402C54.9599 22.2959 55.5411 22.8723 56.2413 23.1312C56.9345 23.3765 57.6682 23.3016 58.4422 22.9065C59.2299 22.5045 59.7253 21.9521 59.9284 21.2493C60.1245 20.5329 59.9915 19.7278 59.5294 18.8338L56.3261 12.6373L59.1984 11.1712Z" fill="#6672D7"/>
<path d="M75.7425 14.3343C75.8612 14.7761 75.9385 15.1815 75.9745 15.5505L67.0214 17.9252C67.3325 18.7891 67.8279 19.3991 68.5076 19.7551C69.1874 20.1112 69.9252 20.1836 70.721 19.9725C71.8706 19.6677 72.556 18.9574 72.7773 17.8418L76.1154 16.9565C76.0781 18.2283 75.6613 19.38 74.8648 20.4115C74.0644 21.4283 72.9347 22.1301 71.4756 22.5171C70.2966 22.8298 69.1663 22.8536 68.0847 22.5884C67.0138 22.3045 66.0845 21.7544 65.2969 20.938C64.5239 20.1177 63.9694 19.0817 63.6331 17.8301C63.2929 16.5637 63.2522 15.3836 63.5109 14.2896C63.7696 13.1957 64.294 12.2679 65.084 11.5062C65.874 10.7446 66.8733 10.2035 68.0818 9.88299C69.246 9.57419 70.3523 9.54893 71.4005 9.80724C72.4634 10.0616 73.3701 10.5862 74.1203 11.381C74.8814 12.1571 75.4221 13.1416 75.7425 14.3343ZM72.2998 14.301C72.0714 13.5097 71.614 12.9528 70.9274 12.6301C70.2368 12.2927 69.4862 12.2315 68.6757 12.4465C67.9093 12.6498 67.3241 13.0574 66.9202 13.6693C66.527 14.2626 66.3822 14.9872 66.4858 15.8431L72.2998 14.301Z" fill="#6672D7"/>
<path d="M83.2767 15.934C83.3327 14.6239 83.6481 13.4927 84.223 12.5403C84.7985 11.5726 85.5698 10.8421 86.5371 10.3488C87.505 9.84031 88.5983 9.61176 89.817 9.6632C91.3861 9.72942 92.664 10.1801 93.6508 11.0153C94.6535 11.836 95.2997 12.962 95.5895 14.3935L92.1391 14.2479C91.9798 13.6917 91.6857 13.252 91.257 12.9287C90.8441 12.5908 90.3178 12.4084 89.6779 12.3814C88.7639 12.3428 88.026 12.6474 87.4642 13.2951C86.903 13.9277 86.5964 14.8533 86.5443 16.0719C86.4928 17.2753 86.7194 18.2234 87.2239 18.9162C87.7291 19.5937 88.4387 19.9518 89.3527 19.9904C90.6475 20.045 91.5177 19.5018 91.9633 18.3608L95.4137 18.5065C95.0047 19.8627 94.265 20.9226 93.1947 21.6862C92.1243 22.4499 90.8121 22.7989 89.2583 22.7333C88.0396 22.6819 86.9694 22.3696 86.0478 21.7966C85.1267 21.2083 84.4204 20.4155 83.9289 19.4181C83.4381 18.4054 83.2207 17.244 83.2767 15.934Z" fill="#6672D7"/>
<path d="M95.9964 17.8324C96.305 16.5894 96.823 15.5468 97.5505 14.7048C98.2928 13.8663 99.1502 13.2916 100.123 12.9805C101.11 12.6732 102.13 12.6483 103.181 12.906C104.099 13.1311 104.853 13.5121 105.443 14.049C106.047 14.5895 106.486 15.1918 106.761 15.8558L107.197 14.1022L110.329 14.8699L107.276 27.167L104.144 26.3993L104.59 24.6014C104.047 25.0805 103.372 25.4253 102.566 25.6358C101.778 25.8351 100.925 25.8223 100.007 25.5972C98.9705 25.3431 98.0888 24.8445 97.3622 24.1012C96.6503 23.3616 96.1621 22.4491 95.8973 21.3638C95.6511 20.2674 95.6841 19.0903 95.9964 17.8324ZM105.67 20.2508C105.858 19.4961 105.869 18.816 105.705 18.2107C105.545 17.5906 105.248 17.0783 104.815 16.6737C104.384 16.2543 103.881 15.9738 103.303 15.8323C102.726 15.6907 102.158 15.7006 101.599 15.862C101.041 16.0234 100.538 16.3397 100.091 16.811C99.6626 17.2711 99.3565 17.8711 99.1729 18.611C98.9892 19.3509 98.9756 20.0383 99.1322 20.6733C99.3073 21.297 99.6024 21.8168 100.018 22.2325C100.448 22.6519 100.944 22.9305 101.507 23.0685C102.084 23.21 102.66 23.2019 103.233 23.0442C103.81 22.8717 104.313 22.5553 104.741 22.0952C105.173 21.6203 105.483 21.0054 105.67 20.2508Z" fill="#6672D7"/>
<path d="M114.87 21.5329L112.116 27.0089C111.925 27.3903 111.873 27.7136 111.961 27.9788C112.07 28.2372 112.343 28.4749 112.78 28.6919L114.112 29.353L112.899 31.7641L111.097 30.869C108.68 29.6688 108.06 27.8973 109.238 25.5543L111.982 20.0988L110.63 19.4275L111.811 17.0778L113.163 17.7491L114.571 14.9498L117.459 16.3839L116.052 19.1832L118.592 20.4444L117.41 22.7942L114.87 21.5329Z" fill="#6672D7"/>
<path d="M116.913 36.5539C116.054 35.9744 115.386 35.3035 114.909 34.5411C114.441 33.7661 114.185 32.9778 114.142 32.1762C114.111 31.3832 114.296 30.6527 114.696 29.9849L117.37 31.7872C117.146 32.2242 117.114 32.69 117.275 33.1846C117.448 33.6876 117.794 34.1138 118.313 34.4632C118.819 34.8041 119.279 34.9675 119.695 34.9535C120.123 34.948 120.445 34.7878 120.66 34.473C120.892 34.133 120.887 33.7618 120.644 33.3595C120.423 32.9531 120.002 32.3935 119.381 31.6808C118.726 30.9635 118.215 30.3338 117.847 29.7914C117.491 29.2576 117.272 28.6593 117.189 27.9967C117.118 27.3425 117.324 26.6628 117.805 25.9576C118.201 25.3783 118.726 24.9602 119.381 24.7032C120.049 24.4547 120.788 24.4007 121.596 24.5412C122.418 24.6902 123.252 25.0502 124.099 25.6211C125.351 26.4647 126.135 27.4528 126.451 28.5852C126.776 29.705 126.615 30.8194 125.969 31.9283L123.427 30.2155C123.673 29.7744 123.72 29.3277 123.567 28.8754C123.435 28.419 123.11 28.0161 122.592 27.6668C122.111 27.343 121.678 27.1797 121.292 27.1771C120.919 27.183 120.625 27.3433 120.41 27.6581C120.17 28.0108 120.162 28.4008 120.387 28.8283C120.621 29.2432 121.046 29.7965 121.663 30.4881C122.293 31.1883 122.785 31.8053 123.141 32.3391C123.496 32.8729 123.705 33.4732 123.767 34.14C123.85 34.8027 123.661 35.4846 123.201 36.1857C122.789 36.7902 122.248 37.2167 121.58 37.4651C120.925 37.7221 120.187 37.7761 119.365 37.6271C118.565 37.474 117.748 37.1163 116.913 36.5539Z" fill="#6672D7"/>
<path d="M133.483 55.0305L131.417 52.5842L135.153 40.0294L126.739 47.045L124.674 44.5988L136.952 34.3609L139.018 36.8072L135.264 49.3766L143.695 42.3463L145.761 44.7926L133.483 55.0305Z" fill="#6672D7"/>
<path d="M150.6 57.7714L148.285 58.9207L145.295 52.9748L141.628 54.7954L143.92 59.3519L141.646 60.4809L139.354 55.9244L133.311 58.9249L131.873 56.0643L146.171 48.9649L150.6 57.7714Z" fill="#6672D7"/>
<path d="M153.77 71.6466L151.288 72.3655L150.091 68.2835L137.24 72.0052L136.338 68.9327L149.19 65.211L147.992 61.129L150.475 60.4102L153.77 71.6466Z" fill="#6672D7"/>
</svg>
